<mxfile host="65bd71144e">
    <diagram id="69q-ejtX8xmd3_PWrQDC" name="Page-1">
        <mxGraphModel dx="660" dy="371" grid="1" gridSize="10" guides="1" tooltips="1" connect="1" arrows="1" fold="1" page="1" pageScale="1" pageWidth="827" pageHeight="1169" math="0" shadow="0">
            <root>
                <mxCell id="0"/>
                <mxCell id="1" parent="0"/>
                <mxCell id="39" value="" style="curved=1;endArrow=classic;html=1;fontFamily=Carlito;fontSource=https%3A%2F%2Ffonts.googleapis.com%2Fcss%3Ffamily%3DCarlito;exitX=1;exitY=0.5;exitDx=0;exitDy=0;" edge="1" parent="1">
                    <mxGeometry x="-0.0803" y="2" width="50" height="50" relative="1" as="geometry">
                        <mxPoint x="440" y="430" as="sourcePoint"/>
                        <mxPoint x="330" y="470" as="targetPoint"/>
                        <mxPoint as="offset"/>
                    </mxGeometry>
                </mxCell>
                <mxCell id="13" value="StorageChat" style="swimlane;whiteSpace=wrap;html=1;" vertex="1" parent="1">
                    <mxGeometry x="440" y="350" width="200" height="140" as="geometry"/>
                </mxCell>
                <mxCell id="19" value="Messages" style="text;html=1;strokeColor=none;fillColor=none;align=center;verticalAlign=middle;whiteSpace=wrap;rounded=0;fontFamily=Carlito;fontSource=https%3A%2F%2Ffonts.googleapis.com%2Fcss%3Ffamily%3DCarlito;" vertex="1" parent="13">
                    <mxGeometry x="70" y="20" width="60" height="40" as="geometry"/>
                </mxCell>
                <mxCell id="20" value="priv_key" style="text;html=1;strokeColor=none;fillColor=none;align=center;verticalAlign=middle;whiteSpace=wrap;rounded=0;fontFamily=Carlito;fontSource=https%3A%2F%2Ffonts.googleapis.com%2Fcss%3Ffamily%3DCarlito;" vertex="1" parent="13">
                    <mxGeometry x="70" y="60" width="60" height="40" as="geometry"/>
                </mxCell>
                <mxCell id="21" value="" style="endArrow=none;html=1;fontFamily=Carlito;fontSource=https%3A%2F%2Ffonts.googleapis.com%2Fcss%3Ffamily%3DCarlito;" edge="1" parent="13">
                    <mxGeometry width="50" height="50" relative="1" as="geometry">
                        <mxPoint y="100" as="sourcePoint"/>
                        <mxPoint x="200" y="100" as="targetPoint"/>
                    </mxGeometry>
                </mxCell>
                <mxCell id="22" value="rec_pub_key" style="text;html=1;strokeColor=none;fillColor=none;align=center;verticalAlign=middle;whiteSpace=wrap;rounded=0;fontFamily=Carlito;fontSource=https%3A%2F%2Ffonts.googleapis.com%2Fcss%3Ffamily%3DCarlito;" vertex="1" parent="13">
                    <mxGeometry x="70" y="100" width="60" height="40" as="geometry"/>
                </mxCell>
                <mxCell id="18" value="" style="endArrow=none;html=1;fontFamily=Carlito;fontSource=https%3A%2F%2Ffonts.googleapis.com%2Fcss%3Ffamily%3DCarlito;" edge="1" parent="13">
                    <mxGeometry width="50" height="50" relative="1" as="geometry">
                        <mxPoint y="60" as="sourcePoint"/>
                        <mxPoint x="200" y="60" as="targetPoint"/>
                    </mxGeometry>
                </mxCell>
                <mxCell id="15" value="&lt;h2&gt;&lt;font data-font-src=&quot;https://fonts.googleapis.com/css?family=Carlito&quot; face=&quot;Carlito&quot;&gt;Messenger A&lt;/font&gt;&lt;/h2&gt;" style="text;html=1;strokeColor=none;fillColor=none;align=center;verticalAlign=middle;whiteSpace=wrap;rounded=0;" vertex="1" parent="1">
                    <mxGeometry x="180" y="300" width="100" height="30" as="geometry"/>
                </mxCell>
                <mxCell id="16" value="&lt;h2&gt;&lt;font data-font-src=&quot;https://fonts.googleapis.com/css?family=Carlito&quot; face=&quot;Carlito&quot;&gt;Messenger B&lt;/font&gt;&lt;/h2&gt;" style="text;html=1;strokeColor=none;fillColor=none;align=center;verticalAlign=middle;whiteSpace=wrap;rounded=0;" vertex="1" parent="1">
                    <mxGeometry x="455" y="300" width="130" height="30" as="geometry"/>
                </mxCell>
                <mxCell id="32" value="StorageChat" style="swimlane;whiteSpace=wrap;html=1;" vertex="1" parent="1">
                    <mxGeometry x="130" y="350" width="200" height="140" as="geometry"/>
                </mxCell>
                <mxCell id="33" value="Messages" style="text;html=1;strokeColor=none;fillColor=none;align=center;verticalAlign=middle;whiteSpace=wrap;rounded=0;fontFamily=Carlito;fontSource=https%3A%2F%2Ffonts.googleapis.com%2Fcss%3Ffamily%3DCarlito;" vertex="1" parent="32">
                    <mxGeometry x="70" y="20" width="60" height="40" as="geometry"/>
                </mxCell>
                <mxCell id="34" value="priv_key" style="text;html=1;strokeColor=none;fillColor=none;align=center;verticalAlign=middle;whiteSpace=wrap;rounded=0;fontFamily=Carlito;fontSource=https%3A%2F%2Ffonts.googleapis.com%2Fcss%3Ffamily%3DCarlito;" vertex="1" parent="32">
                    <mxGeometry x="70" y="60" width="60" height="40" as="geometry"/>
                </mxCell>
                <mxCell id="35" value="" style="endArrow=none;html=1;fontFamily=Carlito;fontSource=https%3A%2F%2Ffonts.googleapis.com%2Fcss%3Ffamily%3DCarlito;" edge="1" parent="32">
                    <mxGeometry width="50" height="50" relative="1" as="geometry">
                        <mxPoint y="100" as="sourcePoint"/>
                        <mxPoint x="200" y="100" as="targetPoint"/>
                    </mxGeometry>
                </mxCell>
                <mxCell id="36" value="rec_pub_key" style="text;html=1;strokeColor=none;fillColor=none;align=center;verticalAlign=middle;whiteSpace=wrap;rounded=0;fontFamily=Carlito;fontSource=https%3A%2F%2Ffonts.googleapis.com%2Fcss%3Ffamily%3DCarlito;" vertex="1" parent="32">
                    <mxGeometry x="70" y="100" width="60" height="40" as="geometry"/>
                </mxCell>
                <mxCell id="37" value="" style="endArrow=none;html=1;fontFamily=Carlito;fontSource=https%3A%2F%2Ffonts.googleapis.com%2Fcss%3Ffamily%3DCarlito;" edge="1" parent="32">
                    <mxGeometry width="50" height="50" relative="1" as="geometry">
                        <mxPoint y="60" as="sourcePoint"/>
                        <mxPoint x="200" y="60" as="targetPoint"/>
                    </mxGeometry>
                </mxCell>
                <mxCell id="38" value="öffentlicher&lt;br&gt;Schlüssel" style="curved=1;endArrow=classic;html=1;fontFamily=Carlito;fontSource=https%3A%2F%2Ffonts.googleapis.com%2Fcss%3Ffamily%3DCarlito;exitX=1;exitY=0.5;exitDx=0;exitDy=0;" edge="1" parent="1" source="32">
                    <mxGeometry width="50" height="50" relative="1" as="geometry">
                        <mxPoint x="350" y="420" as="sourcePoint"/>
                        <mxPoint x="440" y="470" as="targetPoint"/>
                    </mxGeometry>
                </mxCell>
            </root>
        </mxGraphModel>
    </diagram>
</mxfile>